HIERARCHY
ROOT SpineBase
{
  OFFSET 0.000000 0.000000 0.000000
  CHANNELS 6 Xposition Yposition Zposition Zrotation Xrotation Yrotation
  JOINT SpineMid
  {
    OFFSET 0.000000 24.505658 0.000000
    CHANNELS 3 Zrotation Xrotation Yrotation
    JOINT SpineShoulder
    {
      OFFSET -0.266804 18.361503 -0.711785
      CHANNELS 3 Zrotation Xrotation Yrotation
      JOINT Neck
      {
        OFFSET -0.179674 6.078848 -0.462038
        CHANNELS 3 Zrotation Xrotation Yrotation
        JOINT Head
        {
          OFFSET 0.470205 9.156893 6.752904
          CHANNELS 3 Zrotation Xrotation Yrotation
          End Site
          {
            OFFSET 0 0 0
          }
        }
      }
      JOINT ShoulderLeft
      {
        OFFSET -1.683999 -2.617813 9.253122
        CHANNELS 3 Zrotation Xrotation Yrotation
        JOINT ElbowLeft
        {
          OFFSET -7.250705 -22.017178 -16.760213
          CHANNELS 3 Zrotation Xrotation Yrotation
          JOINT WristLeft
          {
            OFFSET -0.265169 -25.776074 8.877851
            CHANNELS 3 Zrotation Xrotation Yrotation
            JOINT HandLeft
            {
              OFFSET -0.111112 -3.815100 5.458580
              CHANNELS 3 Zrotation Xrotation Yrotation
              JOINT HandTipLeft
              {
                OFFSET -0.058422 -1.638468 0.607275
                CHANNELS 3 Zrotation Xrotation Yrotation
                End Site
                {
                  OFFSET 0 0 0
                }
              }
              JOINT ThumbLeft
              {
                OFFSET 0.124056 -0.836928 -0.851691
                CHANNELS 3 Zrotation Xrotation Yrotation
                End Site
                {
                  OFFSET 0 0 0
                }
              }
            }
          }
        }
      }
      JOINT ShoulderRight
      {
        OFFSET 3.452813 -1.790238 -6.488437
        CHANNELS 3 Zrotation Xrotation Yrotation
        JOINT ElbowRight
        {
          OFFSET -12.806218 -20.173118 -3.214761
          CHANNELS 3 Zrotation Xrotation Yrotation
          JOINT WristRight
          {
            OFFSET -4.416381 -18.796435 5.563905
            CHANNELS 3 Zrotation Xrotation Yrotation
            JOINT HandRight
            {
              OFFSET 4.168565 0.163233 -2.626282
              CHANNELS 3 Zrotation Xrotation Yrotation
              JOINT HandTipRight
              {
                OFFSET 0.290229 -3.582830 -2.294048
                CHANNELS 3 Zrotation Xrotation Yrotation
                End Site
                {
                  OFFSET 0 0 0
                }
              }
              JOINT ThumbRight
              {
                OFFSET 1.020826 -2.421861 -6.064297
                CHANNELS 3 Zrotation Xrotation Yrotation
                End Site
                {
                  OFFSET 0 0 0
                }
              }
            }
          }
        }
      }
    }
  }
  JOINT HipLeft
  {
    OFFSET -3.251781 0.619560 -0.713253
    CHANNELS 3 Zrotation Xrotation Yrotation
    JOINT KneeLeft
    {
      OFFSET 11.495621 -43.342396 -11.031314
      CHANNELS 3 Zrotation Xrotation Yrotation
      JOINT AnkleLeft
      {
        OFFSET 1.534002 -28.700823 -3.606600
        CHANNELS 3 Zrotation Xrotation Yrotation
        JOINT FootLeft
        {
          OFFSET -8.953260 -2.728835 -5.832920
          CHANNELS 3 Zrotation Xrotation Yrotation
          End Site
          {
            OFFSET 0 0 0
          }
        }
      }
    }
  }
  JOINT HipRight
  {
    OFFSET 1.434411 1.887283 -5.087682
    CHANNELS 3 Zrotation Xrotation Yrotation
    JOINT KneeRight
    {
      OFFSET 11.096684 -34.697677 -0.708028
      CHANNELS 3 Zrotation Xrotation Yrotation
      JOINT AnkleRight
      {
        OFFSET 2.501087 -33.261848 -4.833636
        CHANNELS 3 Zrotation Xrotation Yrotation
        JOINT FootRight
        {
          OFFSET -9.437194 -2.108518 -6.269040
          CHANNELS 3 Zrotation Xrotation Yrotation
          End Site
          {
            OFFSET 0 0 0
          }
        }
      }
    }
  }
}
MOTION
Frames: 16
Frame Time: 0.033333
70.726408 75.874655 298.976340 -0.000000 0.000000 43.029318 -0.000000 0.000000 -43.029318 -0.000000 0.000000 0.000000 -0.000000 0.000000 0.000000 0.000000 0.000000 0.000000 -0.000000 0.000000 0.000000 -0.000000 0.000000 0.000000 -0.000000 0.000000 0.000000 -0.000000 0.000000 0.000000 0.000000 0.000000 0.000000 0.000000 0.000000 0.000000 -0.000000 0.000000 0.000000 -0.000000 0.000000 0.000000 -0.000000 0.000000 0.000000 -0.000000 0.000000 0.000000 0.000000 0.000000 0.000000 0.000000 0.000000 0.000000 -0.000000 0.000000 -43.029318 -0.000000 0.000000 0.000000 -0.000000 0.000000 0.000000 0.000000 0.000000 0.000000 -0.000000 0.000000 -43.029318 -0.000000 0.000000 0.000000 -0.000000 0.000000 0.000000 0.000000 0.000000 0.000000
70.655990 75.944839 299.120147 0.361266 -0.164265 43.676532 -0.147851 0.368289 -43.675539 -0.000000 0.000000 0.000000 -1.688196 0.157833 1.237059 0.000000 0.000000 0.000000 -0.000000 0.000000 0.000000 -0.000000 0.000000 0.000000 -0.011144 -0.827903 0.008005 -6.939451 2.947138 -2.444000 0.000000 0.000000 0.000000 0.000000 0.000000 0.000000 -0.944770 1.230395 -0.616114 0.958162 -1.219996 0.636460 0.490345 0.336958 -0.850386 -0.594616 -3.449729 0.689024 0.000000 0.000000 0.000000 0.000000 0.000000 0.000000 -0.147851 0.368289 -43.675539 0.922018 -0.901261 -0.156872 -0.718097 1.800531 -3.200246 0.000000 0.000000 0.000000 -0.598834 2.259240 -43.292381 3.725753 -2.492885 -0.705276 5.651815 -3.301005 -2.359141 0.000000 0.000000 0.000000
70.594872 75.990317 299.231040 0.670622 -0.297603 44.075804 0.227380 -0.105127 -44.042917 -0.035570 -0.122092 0.025221 -3.985806 0.648268 2.246826 0.000000 0.000000 0.000000 0.269011 0.273349 -0.910097 -1.141149 0.046514 0.850786 -0.006191 -1.471498 0.033309 -12.181239 5.573954 -3.992951 0.000000 0.000000 0.000000 0.000000 0.000000 0.000000 -2.596913 2.566667 -1.134893 1.770696 -2.192940 1.158842 0.903255 0.609943 -1.470283 -0.942540 -5.522401 1.168666 0.000000 0.000000 0.000000 0.000000 0.000000 0.000000 0.286270 1.493830 -43.783626 1.783776 -2.611092 -0.539752 -1.229445 3.252927 -5.835638 0.000000 0.000000 0.000000 -1.013649 3.986773 -43.383702 6.503950 -4.440535 -1.137140 10.722842 -6.567679 -4.438589 0.000000 0.000000 0.000000
70.543051 76.011088 299.309021 0.927652 -0.399840 44.245967 0.288142 -0.147491 -44.200693 -0.060863 -0.183762 0.033457 -5.453280 0.958162 3.100338 0.000000 0.000000 0.000000 0.332736 0.380146 -1.199870 -1.510274 0.078172 1.119548 0.015636 -1.910292 0.076450 -15.841176 7.717638 -4.901264 0.000000 0.000000 0.000000 0.000000 0.000000 0.000000 -3.544095 3.503203 -1.496149 2.449454 -2.947485 1.571830 1.235107 0.822137 -1.857615 -1.117301 -6.465511 1.435797 0.000000 0.000000 0.000000 0.000000 0.000000 0.000000 0.354208 1.982212 -43.871842 2.320849 -3.463411 -0.682598 -1.557500 4.368875 -7.916063 0.000000 0.000000 0.000000 -1.279245 5.214464 -43.326743 8.371256 -5.829673 -1.385509 14.482134 -9.177924 -6.141584 0.000000 0.000000 0.000000
70.500530 76.007153 299.354089 1.132104 -0.470903 44.193790 0.314090 -0.181099 -44.139018 -0.090035 -0.246050 0.038652 -6.570877 1.274023 3.769035 0.000000 0.000000 0.000000 0.348876 0.470058 -1.378313 -1.334349 -0.611968 1.428544 -0.343219 -1.390693 -0.004106 -18.075713 9.334518 -5.382909 0.000000 0.000000 0.000000 0.000000 0.000000 0.000000 -4.283328 4.230484 -1.744319 3.004144 -3.505261 1.879270 1.483727 0.976257 -2.012334 -1.152709 -6.422100 1.483487 0.000000 0.000000 0.000000 0.000000 0.000000 0.000000 0.361185 2.298242 -43.778109 2.630704 -4.013049 -0.758813 -1.719466 5.161524 -9.457694 0.000000 0.000000 0.000000 -1.415115 5.965535 -43.129967 9.350066 -6.658324 -1.512570 16.575123 -10.726412 -7.530026 0.000000 0.000000 0.000000
70.467307 75.978512 299.366245 1.283883 -0.510811 43.914763 0.305540 -0.205541 -43.853508 -0.122423 -0.309069 0.040708 -7.340403 1.604728 4.250718 0.000000 0.000000 0.000000 0.317111 0.544392 -1.444857 -1.382823 -0.695680 1.506163 -0.336356 -1.252287 0.055077 -19.006180 10.434871 -5.577689 0.000000 0.000000 0.000000 0.000000 0.000000 0.000000 -4.827923 4.759767 -1.891317 3.442415 -3.881770 2.083882 1.648234 1.074388 -1.936136 -1.052783 -5.458586 1.305444 0.000000 0.000000 0.000000 0.000000 0.000000 0.000000 0.303698 2.441007 -43.496931 2.717434 -4.260644 -0.775747 -1.727046 5.642492 -10.476932 0.000000 0.000000 0.000000 -1.428452 6.253628 -42.789359 9.450900 -6.928018 -1.553980 16.923601 -11.024066 -8.675797 0.000000 0.000000 0.000000
70.441471 75.910909 299.351168 1.381023 -0.492950 42.477920 0.233483 -0.250061 -42.413429 -0.128952 -0.345653 0.041648 -7.817034 1.983457 4.561445 0.000000 0.000000 0.000000 0.211074 0.567129 -1.389982 -1.349037 -0.629210 1.450161 0.077050 -1.029566 0.625686 -16.951440 13.436345 -5.263916 0.000000 0.000000 0.000000 0.000000 0.000000 0.000000 -5.467278 5.259647 -1.990415 4.035784 -4.241946 2.263921 1.419583 0.920892 -1.241381 -0.136286 0.433610 0.512475 0.000000 0.000000 0.000000 0.000000 0.000000 0.000000 0.123574 2.453606 -42.073399 2.943633 -4.578738 -0.790809 -1.894455 6.229670 -11.236544 0.000000 0.000000 0.000000 -1.000926 5.027942 -41.571444 6.516080 -5.490925 -1.319181 15.724298 -9.897585 -10.083778 0.000000 0.000000 0.000000
70.421067 75.810896 299.294894 1.404706 -0.475079 41.645566 0.156245 -0.255555 -41.582141 -0.171771 -0.403365 0.035707 -7.841757 2.479324 4.645086 0.000000 0.000000 0.000000 0.088304 0.567153 -1.195882 -1.159888 -0.590406 1.266080 0.120921 0.166089 0.650205 -14.716734 13.994132 -4.918159 0.000000 0.000000 0.000000 0.000000 0.000000 0.000000 -5.626998 5.339297 -1.912072 4.262820 -4.217720 2.221345 1.454461 0.929952 -0.657777 0.123663 3.268305 -0.074205 0.000000 0.000000 0.000000 0.000000 0.000000 0.000000 -0.006880 2.052686 -41.382740 1.654100 -3.482431 -0.547402 -2.809777 6.478429 -9.556939 0.000000 0.000000 0.000000 -0.944965 5.104342 -40.690410 5.987623 -5.289920 -1.308205 11.229649 -6.471008 -10.092732 0.000000 0.000000 0.000000
70.408459 75.686480 299.214446 1.363185 -0.458484 41.116552 0.091856 -0.225366 -41.057485 -0.242466 -0.470686 0.024656 -7.430066 2.876270 4.484120 0.000000 0.000000 0.000000 -0.061853 0.575186 -0.900907 -0.837569 -0.620417 0.988202 -0.426495 1.073220 -0.154434 -14.297043 11.436605 -4.439460 0.000000 0.000000 0.000000 0.000000 0.000000 0.000000 -5.125802 4.837627 -1.627866 3.902115 -3.677305 1.888791 1.448921 0.911487 0.043746 0.805280 5.976901 -1.010148 0.000000 0.000000 0.000000 0.000000 0.000000 0.000000 -0.266359 2.114575 -40.804669 1.320364 -3.228381 -0.530761 -1.863295 5.671386 -8.565647 0.000000 0.000000 0.000000 -0.465123 4.266150 -40.291741 4.012995 -4.222509 -1.114240 5.590437 -2.236815 -8.658276 0.000000 0.000000 0.000000
70.391039 75.568000 299.132241 1.243968 -0.483753 40.525685 0.062616 -0.180206 -40.473823 -0.321061 -0.552486 0.009867 -6.687062 3.272040 4.129639 0.000000 0.000000 0.000000 -0.226998 0.648916 -0.550139 -0.422217 -0.756624 0.663807 -0.428132 1.238272 -0.156146 -14.088994 8.762307 -4.584093 0.000000 0.000000 0.000000 0.000000 0.000000 0.000000 -4.039700 4.173218 -1.333014 3.025916 -2.964368 1.509695 2.005642 1.260472 0.158814 0.764976 5.224248 -1.487775 0.000000 0.000000 0.000000 0.000000 0.000000 0.000000 -0.631371 1.175952 -40.513953 0.257215 -1.409325 -0.104637 1.477830 3.030334 -9.146571 0.000000 0.000000 0.000000 -0.520381 5.148604 -39.473147 5.267407 -5.106703 -1.336162 0.229800 1.262435 -6.671473 0.000000 0.000000 0.000000
70.372992 75.479573 299.089203 1.170578 -0.570567 40.195967 0.121051 -0.116631 -40.147324 -0.386854 -0.673289 -0.000648 -6.314902 3.411032 3.973089 0.000000 0.000000 0.000000 -0.951223 1.255725 -0.024787 0.473904 -1.487250 0.183862 -0.469288 1.488712 -0.171614 -10.714823 6.282773 -3.678672 0.000000 0.000000 0.000000 0.000000 0.000000 0.000000 -2.979493 3.444705 -0.993748 2.224489 -2.970369 1.332673 3.683797 3.208423 0.484964 0.005436 3.952068 -2.802431 0.000000 0.000000 0.000000 0.000000 0.000000 0.000000 -0.526032 1.191253 -40.184670 -0.319130 -0.767730 -0.003073 11.045598 -4.390826 -9.601931 0.000000 0.000000 0.000000 0.601474 3.444995 -39.434018 1.789430 -3.341886 -0.967546 -0.722396 2.002737 -6.340004 0.000000 0.000000 0.000000
70.381235 75.466038 299.054731 1.099186 -0.675875 39.803233 0.098383 -0.021902 -39.760782 -0.508363 -0.818959 -0.020356 -5.490375 3.617890 3.588300 0.000000 0.000000 0.000000 -0.680716 1.449146 -0.000296 0.518590 -1.748122 0.203452 -0.789497 1.006443 -0.548552 -17.200627 6.543944 -5.304350 0.000000 0.000000 0.000000 0.000000 0.000000 0.000000 -2.732301 3.860204 -1.093234 2.098319 -2.368990 1.231381 3.498919 2.203893 0.492057 0.225368 -1.868747 -2.851332 0.000000 0.000000 0.000000 0.000000 0.000000 0.000000 -0.411919 1.222829 -39.792353 -0.005337 -0.874302 -0.046145 22.167051 -12.602535 -11.854753 0.000000 0.000000 0.000000 1.029265 2.551932 -39.224183 -0.276359 -1.940318 -0.620321 1.347282 0.552789 -6.737018 0.000000 0.000000 0.000000
70.409953 75.567146 299.048268 1.125532 -0.754651 38.579904 0.141054 0.090515 -38.537472 -0.569028 -0.854789 -0.026008 -5.341518 3.627348 3.531989 0.000000 0.000000 0.000000 -0.610764 1.451155 0.004211 0.532021 -1.829603 0.209418 -0.843149 0.196644 -0.577809 -21.438124 -0.070965 -7.313098 0.000000 0.000000 0.000000 0.000000 0.000000 0.000000 -3.848222 5.136423 -1.597611 3.344327 -3.585271 1.892678 1.460183 0.931809 -0.577658 -0.101594 -8.218765 -0.800909 0.000000 0.000000 0.000000 0.000000 0.000000 0.000000 -0.711513 0.406403 -38.877707 0.154971 0.186171 0.215851 31.291070 -20.447192 -18.497360 0.000000 0.000000 0.000000 -0.263928 4.840746 -37.611031 5.419444 -5.103948 -1.332910 1.481360 -0.094748 -5.134100 0.000000 0.000000 0.000000
70.381724 75.640819 299.259186 1.088323 -1.144479 36.848596 0.441872 0.341542 -36.806509 -0.530406 -0.713283 -0.017214 -5.657449 3.411878 3.682302 0.000000 0.000000 0.000000 -0.706820 1.320036 -0.006570 0.938861 -1.589508 0.351100 -1.920133 -0.174866 -1.634856 -20.596680 1.063150 -6.152650 0.000000 0.000000 0.000000 0.000000 0.000000 0.000000 -5.742904 6.749836 -2.219928 3.447953 -4.718300 1.990233 2.428173 -0.074251 -1.352105 0.038829 -12.515483 0.889320 0.000000 0.000000 0.000000 0.000000 0.000000 0.000000 -0.362503 0.555778 -37.193795 1.000945 -0.204222 0.112077 25.436928 -16.477264 -30.537619 0.000000 0.000000 0.000000 -1.246783 7.079566 -35.446685 9.426256 -7.278511 -1.684208 1.530014 -0.155506 -6.642688 0.000000 0.000000 0.000000
70.429974 75.782736 299.273375 1.278305 -1.074084 37.107243 0.432300 0.381986 -37.057503 -0.465502 -0.768069 -0.005575 -6.362194 3.317748 4.035495 0.000000 0.000000 0.000000 -0.927010 1.277646 -0.022384 0.906580 -1.646304 0.340557 -1.803387 3.403252 -1.663852 -10.953097 5.864833 -2.903865 0.000000 0.000000 0.000000 0.000000 0.000000 0.000000 -5.610253 7.323613 -2.673396 2.978935 -4.401196 2.156614 -2.727119 -4.152120 -2.990615 4.065048 -16.948640 2.944230 0.000000 0.000000 0.000000 0.000000 0.000000 0.000000 -0.791858 -0.240774 -37.750300 1.586129 0.948432 0.277971 29.414889 -21.519880 -29.997822 0.000000 0.000000 0.000000 -2.814893 9.065082 -35.269583 12.902586 -8.481022 -1.825123 1.746928 -0.877711 -6.095329 0.000000 0.000000 0.000000
70.556031 75.968380 299.109947 1.636456 -0.612257 38.758339 0.134382 0.309395 -38.698322 -0.370496 -0.674286 0.013080 -6.844289 3.003158 4.155481 0.000000 0.000000 0.000000 -1.176707 0.962784 -0.051145 0.337218 -1.702103 0.137965 -0.846269 6.253024 -1.023028 -0.085241 6.448707 0.365929 0.000000 0.000000 0.000000 0.000000 0.000000 0.000000 -6.749613 8.471607 -3.336367 3.805378 -4.624258 2.658978 -14.396910 -11.534163 -7.542920 11.533405 -20.774362 7.266620 0.000000 0.000000 0.000000 0.000000 0.000000 0.000000 -1.850108 -1.216630 -39.703532 2.577513 1.959303 0.355737 24.812210 -18.203778 -32.623148 0.000000 0.000000 0.000000 -5.090984 10.872021 -36.538810 16.439262 -8.562339 -1.818755 1.686443 -1.343561 -9.130207 0.000000 0.000000 0.000000
